<?xml version="1.0" encoding="UTF-8" standalone="no"?>
<!-- Created with Inkscape (http://www.inkscape.org/) -->

<svg
   width="340"
   height="200"
   viewBox="0 0 89.958332 52.91667"
   version="1.1"
   id="svg5"
   inkscape:version="1.2 (dc2aeda, 2022-05-15)"
   xml:space="preserve"
   sodipodi:docname="box.svg"
   xmlns:inkscape="http://www.inkscape.org/namespaces/inkscape"
   xmlns:sodipodi="http://sodipodi.sourceforge.net/DTD/sodipodi-0.dtd"
   xmlns="http://www.w3.org/2000/svg"
   xmlns:svg="http://www.w3.org/2000/svg"><sodipodi:namedview
     id="namedview7"
     pagecolor="#ffffff"
     bordercolor="#999999"
     borderopacity="1"
     inkscape:pageshadow="0"
     inkscape:pageopacity="0"
     inkscape:pagecheckerboard="0"
     inkscape:document-units="px"
     showgrid="false"
     units="px"
     inkscape:showpageshadow="0"
     inkscape:deskcolor="#d1d1d1"
     inkscape:zoom="1.3801677"
     inkscape:cx="83.685484"
     inkscape:cy="105.42197"
     inkscape:window-width="1366"
     inkscape:window-height="704"
     inkscape:window-x="0"
     inkscape:window-y="27"
     inkscape:window-maximized="1"
     inkscape:current-layer="layer1" /><defs
     id="defs2" /><g
     inkscape:label="Layer 1"
     inkscape:groupmode="layer"
     id="layer1"><g
       id="g98544"><path
         style="fill:#ffdd55;stroke:#000000;stroke-width:1.3229167;stroke-linecap:round;stroke-linejoin:round;stroke-opacity:1;stroke-dasharray:none"
         d="m 4.7260289,3.6452792 c 0.3100874,0 0.6202934,0.00858 0.9302618,0 0.1546558,-0.00428 0.2146221,-0.048069 0.3617672,-0.077482 0.3945898,-0.078875 1.1595634,-0.1524156 1.5504263,-0.1084709 0.1945156,0.021868 0.048911,0.029226 0.2067216,0.061984 0.1638681,0.034015 0.3198128,0.083352 0.4823601,0.1239686 0.5233953,0.130782 1.0827179,0.1501836 1.6193318,0.1394603 1.5595323,-0.031165 3.1004123,-0.2523971 4.6512853,-0.3873976 1.456358,-0.126773 2.917265,-0.039996 4.375652,-0.077482 0.352641,-0.00906 0.699353,-0.051134 1.050849,-0.077482 0.316642,-0.023736 0.63177,-0.022357 0.947485,-0.061984 0.444101,-0.05574 0.877919,-0.1145842 1.326476,-0.1239684 0.705549,-0.014761 1.413209,0 2.118921,0 0.590883,0 1.183561,-0.011308 1.774377,0 0.571497,0.010938 0.303057,0.030989 0.999167,0.030989 1.194014,0 2.388431,-0.076763 3.583207,-0.046487 1.568815,0.039756 3.134233,0.028801 4.702972,0 0.965221,-0.017722 1.930426,0.00601 2.894126,-0.061984 0.666488,-0.047022 1.331368,-0.1140529 1.998334,-0.1549578 0.490453,-0.030079 0.268804,-0.00525 0.861346,-0.015497 0.740715,-0.012814 1.485064,-0.072312 2.222283,-0.1394661 0.885791,-0.080688 1.753034,-0.2770986 2.635729,-0.3719057 0.455068,-0.048877 0.46254,-0.023352 0.913027,-0.030995 0.488077,-0.00828 0.976247,-0.022208 1.464292,-0.030989 0.751099,-0.013514 1.505204,-0.035382 2.256742,-0.015497 0.439362,0.011625 0.888452,0.00896 1.32647,0.046487 0.782344,0.067022 1.55639,0.1661182 2.342872,0.1859529 1.323814,0.033386 2.658145,-0.00444 3.979432,0.092979 0.86151,0.063516 1.70389,0.2697728 2.566823,0.3099212 1.238647,0.057629 2.48134,0.030995 3.721024,0.030995 1.546002,0 3.088944,0.00582 4.63406,-0.061984 0.877872,-0.038521 1.756924,-0.094359 2.635729,-0.1084771 0.81497,-0.013091 1.63154,0.00972 2.446235,-0.030989 0.866362,-0.043295 1.743604,-0.1193545 2.601269,-0.2479372 0.254067,-0.03809 0.503442,-0.1047721 0.757995,-0.1394661 0.2385,-0.032506 0.483745,-0.0361 0.723521,-0.061984 0.266504,-0.02877 0.526471,-0.092762 0.792451,-0.1239686 0.244121,-0.028641 0.49593,-0.029184 0.740759,-0.061984 0.311756,-0.041766 0.619128,-0.1107767 0.930249,-0.1549637 0.313597,-0.044539 0.632108,-0.035979 0.947486,-0.046487 0.190008,-0.00633 0.378024,-0.022947 0.568489,-0.015497 0.445783,0.017436 0.913739,0.1085439 1.36094,0.1549637 0.487577,0.050611 0.977771,0.022951 1.464292,0.092974 0.14061,0.020238 0.370059,0.034312 0.516805,0.092979 0.09755,0.038998 0.08104,0.053757 0.17227,0.108471 0.101156,0.060664 0.217967,0.096797 0.310092,0.1704554 0.01291,0.010321 0.0078,0.03292 0.01722,0.046493 0.203214,0.2925082 -0.112151,-0.237882 0.172271,0.2169421 0.103788,0.1659718 0.0049,0.049782 0.08614,0.2324455 0.06075,0.095634 0.07818,0.1134128 0.120586,0.2169422 0.239758,0.5853895 0.406572,1.1654023 0.447903,1.7975503 0.0146,0.2233856 0.103013,0.4471906 0.137808,0.6663299 0.04945,0.3114355 -0.05744,0.6508758 0,0.9607595 0.06627,0.3574902 0.128418,0.8325335 0.103365,1.1931992 -0.01333,0.1921092 -0.05604,0.3838794 -0.08613,0.573356 -0.03151,0.1984714 -0.03571,0.405184 -0.06892,0.6043513 -0.02513,0.1506701 -0.07431,0.2991344 -0.103362,0.4493876 -0.104132,0.5386107 -0.15603,1.0877343 -0.258397,1.6270893 -0.05608,0.295441 -0.136372,0.586964 -0.189506,0.883278 -0.04992,0.278387 -0.02082,0.586027 -0.03445,0.86778 -0.02106,0.436026 -0.137646,0.863319 -0.155045,1.301676 -0.01556,0.39185 0.01815,0.785972 0,1.177701 -0.01061,0.22912 -0.03018,0.188271 -0.05168,0.449388 -0.01868,0.226814 -0.0071,0.454356 -0.01722,0.681827 -0.02236,0.503006 -0.03877,1.014541 -0.01722,1.518618 0.0317,0.741502 0.258604,1.44446 0.396222,2.169456 0.111344,0.586593 0.172828,1.180441 0.292854,1.766556 0.272309,1.329738 0.64204,2.645148 0.79244,3.997996 0.06842,0.615471 0.05688,1.241031 0.08614,1.859534 0.03481,0.735746 0.04996,1.453431 -0.05168,2.184948 -0.08019,0.577099 -0.22235,1.151768 -0.25841,1.735566 -0.04158,0.673188 0.05271,1.330812 0.103364,1.998993 0.07253,0.956882 0.09696,1.938568 0.06891,2.89777 -0.02344,0.801426 -0.196228,1.591694 -0.292857,2.386404 -0.142377,1.170967 -0.251828,2.340655 -0.327313,3.517615 -0.02249,0.350782 -0.04839,0.703037 -0.06891,1.053732 -0.01725,0.294957 0.05097,0.626115 -0.03446,0.914278 -0.01138,0.0384 -0.03445,0.07231 -0.05168,0.108466 -0.01722,0.04132 -0.03911,0.081 -0.05168,0.123968 -0.03997,0.136634 -0.03297,0.265528 -0.06891,0.402902 -0.102442,0.391594 -0.239961,0.778264 -0.310079,1.177708 -0.02506,0.142722 -0.02024,0.292484 -0.05168,0.433883 -0.03217,0.144679 -0.112299,0.288501 -0.137824,0.433895 -0.01164,0.06638 -0.0061,0.134975 -0.01722,0.201451 -0.08722,0.523058 -0.398367,1.342681 -0.757994,1.72007 -0.555416,0.582848 -1.445708,0.816861 -2.205049,0.976243 -0.196416,0.04123 -0.388707,0.101159 -0.585713,0.139473 -0.61128,0.118888 -0.12469,0.01442 -0.516819,0.04649 -0.06944,0.0057 -0.137808,0.02066 -0.206713,0.031 -0.08614,0.0155 -0.171225,0.03884 -0.258411,0.04649 -0.110429,0.0097 -0.524214,0.01053 -0.689075,0.03099 -0.568669,0.07056 -1.13328,0.105143 -1.705478,0.139462 -0.442807,0.02656 -0.872794,0.141962 -1.309246,0.201448 -0.09686,0.0132 -0.195614,0.0055 -0.292857,0.01548 -5.29e-4,5.8e-5 -0.619606,0.09291 -0.62017,0.09299 -0.309017,0.0417 -0.623506,0.06587 -0.930261,0.123968 -0.358908,0.06797 -0.706671,0.193757 -1.068073,0.247936 -0.289113,0.04334 -0.603687,0.06288 -0.895803,0.07748 -0.271092,0.01355 -0.539673,-0.01424 -0.809664,-0.031 -0.452067,-0.02805 -0.913876,-0.06339 -1.36094,-0.139473 -0.604838,-0.102936 0.01881,-0.03117 -0.585711,-0.09297 -0.715484,-0.07314 -1.435068,-0.166209 -2.15338,-0.201452 -0.356188,-0.01746 -0.71241,-0.0065 -1.068073,-0.04649 -0.227394,-0.02556 -0.430474,-0.09795 -0.654616,-0.139459 -0.285229,-0.05282 -0.572773,-0.09458 -0.861357,-0.123971 -0.335523,-0.03417 -0.651912,-0.02159 -0.981932,-0.108476 -0.362082,-0.09533 -0.665813,-0.286113 -1.016389,-0.4029 -0.926698,-0.308713 -1.947974,-0.525192 -2.928596,-0.557853 -0.546674,-0.0182 -1.090943,0.01516 -1.636562,0.03098 -0.612174,0.01775 -1.233225,-0.04547 -1.843288,0.01551 -0.401159,0.0401 -0.808665,0.08655 -1.205881,0.154964 -0.09833,0.01693 -0.193665,0.05116 -0.292857,0.06198 -0.09134,0.0099 -0.183883,-0.0048 -0.275632,0 -0.265036,0.01402 -0.529289,0.04296 -0.792441,0.07748 -0.321786,0.04221 -0.590486,0.156392 -0.895802,0.247938 -0.276985,0.08305 -0.142859,0.03008 -0.361773,0.04648 -0.104381,0.0078 -0.208267,0.0644 -0.310081,0.07748 -0.102648,0.01318 -0.207288,0.0036 -0.310092,0.01548 -0.139276,0.01617 -0.274272,0.06041 -0.413443,0.07748 -0.336979,0.04134 -0.04203,0 -0.378994,0 -0.444868,0 -0.899078,0.0016 -1.343705,0.0155 -0.744673,0.02349 -1.479074,0.179655 -2.222286,0.232434 -0.464392,0.03298 -0.931992,-0.01408 -1.395386,0.031 -0.104024,0.01011 -0.205968,0.0373 -0.310079,0.04648 -0.289748,0.02556 -0.650052,0.02376 -0.947486,0.06199 -0.735962,0.09457 -1.461532,0.24244 -2.205051,0.278921 -0.641207,0.03146 -1.290833,0.05604 -1.929426,-0.03099 -0.06444,-0.0088 -0.125667,-0.034 -0.189495,-0.04648 -0.485026,-0.09485 -0.990031,-0.154416 -1.481526,-0.201451 -0.286549,-0.02742 -0.575112,-0.03144 -0.861343,-0.06199 -0.195826,-0.0209 -0.389684,-0.05859 -0.585714,-0.07748 -0.251708,-0.02426 -0.50555,-0.01617 -0.757991,-0.03098 -1.004557,-0.05893 -2.00904,-0.103992 -3.014726,-0.139473 -0.292815,-0.01032 -0.585661,-0.04088 -0.878568,-0.04649 -1.153737,-0.02207 -2.308979,0.02593 -3.462626,0 -0.631693,-0.01421 -1.263264,-0.01836 -1.894969,-0.031 -0.648153,-0.01294 -1.298565,-0.03643 -1.946654,0 -0.560776,0.03153 -1.1074,0.155548 -1.671012,0.170455 -0.981246,0.02596 -1.964427,-0.02053 -2.945813,0 -0.512108,0.01072 -1.020429,0.05443 -1.533203,0.06199 -0.246893,0.0036 -0.494088,-0.01109 -0.740758,0 -0.25325,0.01138 -0.505029,0.04533 -0.757987,0.06198 -0.333562,0.02196 -0.66551,0.0061 -0.999167,0.0155 -0.357532,0.01005 -0.709778,0.03849 -1.068072,0.031 -0.788525,-0.01651 -1.572723,-0.02281 -2.360095,0.01548 -0.761954,0.03705 -1.529102,-0.02368 -2.29119,0.01548 -0.576489,0.02964 -1.148658,0.163539 -1.722701,0.216956 -0.425274,0.03957 -0.85028,0.0046 -1.274794,0.03098 -0.7534334,0.04674 -1.536694,0.123539 -2.2911902,0.03099 -0.099039,-0.01214 -0.1944645,-0.04538 -0.2928559,-0.06198 C 7.5808554,50.692525 7.4003701,50.692147 7.2239438,50.660407 7.0014713,50.620384 6.7873562,50.547639 6.5693146,50.489952 6.2231282,50.398361 5.7133042,50.299034 5.3978788,50.133537 5.2944984,50.079297 5.2064485,49.990149 5.1050228,49.932089 4.8709504,49.798096 4.6525189,49.623079 4.4848522,49.405229 4.2427418,49.090655 4.2722187,48.660033 4.2264487,48.2895 4.156418,47.722564 4.0985303,47.143618 4.123085,46.569433 c 0.00769,-0.179867 0.069884,-0.338193 0.1033637,-0.511366 0.029595,-0.15308 0.026345,-0.311039 0.051682,-0.464881 0.033793,-0.205173 0.069582,-0.411427 0.086135,-0.619855 0.027937,-0.351766 0,-0.716433 0,-1.069229 0,-0.56879 3.175e-4,-1.136719 -0.01723,-1.704565 C 4.3362061,41.848927 4.27695,41.495026 4.2436718,41.145797 4.2088005,40.779849 4.2038504,40.411875 4.1747666,40.045578 4.1379657,39.582086 4.1154748,39.113427 4.0714029,38.65093 4.058478,38.515294 4.0186129,38.383322 4.0024977,38.248027 3.9347453,37.679218 3.9401224,37.099376 3.899134,36.527958 3.8256312,35.503264 3.7244217,34.472952 3.7613176,33.444236 c 0.016386,-0.456874 0.032066,-0.925176 0.086135,-1.379151 0.041105,-0.34513 0.038267,-0.09428 0.051682,-0.480383 0.00243,-0.06995 -0.00292,-0.46152 0,-0.511368 0.029676,-0.507214 0.1220809,-1.009131 0.1378162,-1.518624 0.010004,-0.3239 0.034453,-0.652578 0.034453,-0.976251 0,-0.314227 -0.037995,-0.631307 -0.051682,-0.945261 -0.068909,-1.580685 0.013713,0.322696 -0.017224,-0.790305 -0.015975,-0.574777 -0.074466,-1.150226 -0.1378164,-1.720066 -0.054042,-0.486119 -0.056866,-0.969553 -0.086134,-1.456634 -0.024352,-0.405269 -0.094048,-0.802809 -0.1205931,-1.208691 -0.011123,-0.170094 0.00541,-0.341001 0,-0.511372 -0.00919,-0.289371 -0.026434,-0.577718 -0.017224,-0.867786 0.018881,-0.594511 0.07138,-1.188107 0,-1.782053 C 3.6122783,19.05956 3.571597,18.819552 3.5373647,18.583475 3.5154836,18.43258 3.4612234,18.286882 3.4512301,18.134087 3.4371014,17.91804 3.450013,17.699509 3.4340004,17.483249 3.420176,17.296682 3.3895401,17.113662 3.3823244,16.92539 3.3726592,16.673201 3.3974401,16.704869 3.3650947,16.4915 3.2448138,15.698075 3.1729652,14.906477 3.141144,14.105096 3.124324,13.68151 3.085208,13.259647 3.106691,12.834421 3.125881,12.454581 3.182514,12.081711 3.227278,11.7032 3.238824,11.60557 3.235798,11.506699 3.244508,11.408776 3.25937,11.241669 3.304328,11.078592 3.330642,10.912902 3.4299624,10.287525 3.5557482,9.6739252 3.7440855,9.0688649 3.812093,8.8503813 3.8852256,8.6153712 3.9680363,8.4025351 4.1600364,7.9090654 3.9167066,8.6648993 4.0886291,8.1391003 4.1388505,7.9855067 4.1661822,7.8290581 4.2092164,7.6742152 4.2317959,7.5929701 4.28374,7.5098489 4.2953507,7.4262781 c 0.00836,-0.060161 -0.011068,-0.1262108 0,-0.1859529 C 4.3196207,7.1093284 4.3878047,6.9949575 4.415938,6.8684195 4.478134,6.5886755 4.469454,6.2843131 4.502078,6.0006335 4.526245,5.79049 4.537365,5.804754 4.570983,5.6132358 4.600487,5.4451574 4.618967,5.2712703 4.639888,5.101864 c 0.00623,-0.050439 -0.00925,-0.1050666 0,-0.1549636 0.016272,-0.087814 0.051194,-0.1757775 0.068911,-0.2634348 0.015163,-0.075029 -0.00153,-0.1712523 0,-0.247937 C 4.714029,4.172085 4.720282,3.908663 4.726023,3.6452303 Z"
         id="path98522" /><path
         style="fill:none;stroke:#000000;stroke-width:1.3229167;stroke-linecap:round;stroke-linejoin:round;stroke-opacity:1;stroke-dasharray:none"
         d="m 3.0033336,10.866464 c 0.3215696,0.02583 0.6426822,0.05817 0.9647085,0.07748 0.5838817,0.03501 1.155577,-0.128013 1.7399304,-0.09297 0.3885431,0.0233 0.7667713,0.113648 1.1542068,0.139466 0.099548,0.0066 0.3347923,-0.0072 0.4306723,0 0.2999121,0.02248 0.5964201,0.116045 0.8958033,0.13946 0.8139454,0.06366 1.6350708,0.03534 2.4462291,-0.03099 0.267067,-0.02184 0.630663,0.02015 0.895804,0.03099 0.706748,0.0289 1.411709,0.07624 2.118921,0.09298 0.833015,0.01972 1.664966,-0.01512 2.497911,0.03099 0.54795,0.03033 0.570599,0.05207 1.03362,0.06199 0.602498,0.0129 1.206467,-0.01806 1.80883,0 0.476939,0.0143 0.951615,0.04819 1.429839,0.03099 0.424995,-0.01529 0.835326,-0.103293 1.25757,-0.139466 0.371901,-0.03186 0.747283,-0.03553 1.119754,-0.06198 0.108695,-0.0077 0.603723,-0.05695 0.706311,-0.06198 0.723887,-0.03552 1.447118,-0.07593 2.170597,-0.108471 0.348977,-0.0157 0.702275,0.0047 1.050842,-0.0155 0.652095,-0.03784 1.296982,-0.144437 1.946654,-0.201451 0.646991,-0.05678 1.297445,-0.09489 1.946645,-0.108471 0.401061,-0.0084 0.821351,-0.02493 1.223119,0 0.614595,0.03813 1.22691,0.138161 1.843288,0.154964 1.40707,0.03836 2.813405,-0.04416 4.220607,-0.06198 0.763844,-0.0097 1.527308,-0.02058 2.291189,-0.03099 0.373859,-0.0051 0.746262,0.0085 1.119753,-0.0155 0.50372,-0.03236 0.364528,-0.03717 0.964711,-0.108471 0.855062,-0.101585 1.71186,-0.194109 2.566821,-0.294425 0.593815,-0.06967 1.195983,-0.0154 1.791607,-0.06198 1.11093,-0.08689 2.215026,-0.2679157 3.324805,-0.3719055 1.014622,-0.095073 2.033037,0.00578 3.049183,-0.108477 0.516895,-0.058121 1.041977,-0.1518851 1.550418,-0.2634345 0.127056,-0.027876 0.250677,-0.071664 0.378998,-0.092974 0.90135,-0.1496835 1.909635,-0.2191596 2.825231,-0.2324396 0.463195,-0.00672 0.931923,-0.00992 1.395376,0 0.448405,0.0096 0.895061,0.046487 1.343705,0.046487 0.9374,0 1.949608,-0.060242 2.876912,0.030989 0.851617,0.083785 1.68593,0.2422089 2.532364,0.3564142 0.555334,0.074928 1.113759,0.1302575 1.671021,0.1859528 0.495319,0.049504 0.987203,0.1351368 1.481514,0.1859529 0.507719,0.052195 1.023569,0.049976 1.53321,0.077482 0.287335,0.01551 0.754065,0.05311 1.033613,0.06198 0.748189,0.02375 1.491692,0.0085 2.239508,0 0.906901,-0.01032 1.815115,0.01783 2.721869,0.03099 1.466019,0.02127 2.945519,0.11118 4.410099,-0.0155 1.236313,-0.106934 2.433963,-0.4006963 3.652118,-0.6198425 0.371567,-0.066845 0.745379,-0.1496412 1.119754,-0.2014503 0.207451,-0.028709 0.413723,-0.02585 0.62017,-0.046487 0.03579,-0.00358 0.06779,-0.025659 0.103364,-0.030989 0.142997,-0.021431 0.286846,-0.021751 0.430679,-0.030995 0.07158,-0.0046 0.134662,-0.030989 0.206726,-0.030989 0.03445,0 0.103352,0.034451 0.103352,0 0,-0.017981 -0.04169,-5.292e-4 -0.05167,-0.015497 -0.03498,-0.052447 0.0062,-0.1295744 0.03445,-0.1859528 0.05174,-0.1034405 0.234646,-0.3088262 0.223952,-0.43389 -0.20128,-2.3536707 -0.239279,0.00504 -0.189495,-1.4721314"
         id="path98524" /><path
         style="fill:none;stroke:#000000;stroke-width:1.3229167;stroke-linecap:round;stroke-linejoin:round;stroke-opacity:1;stroke-dasharray:none"
         d="m 63.383905,6.1711437 c 2.595049,0.4040185 -0.120195,0.00562 1.309248,0.1704551 0.807369,0.093103 -0.287993,0.00508 0.516806,0.077482 0.189015,0.017005 0.379529,0.013406 0.568489,0.030989 0.404908,0.037677 -0.03325,0.031038 0.396232,0.046493 0.438991,0.015796 0.892977,0.027985 1.32647,0.092974 0.237027,0.035535 0.291814,0.059304 0.53404,0.046487 0.06881,-0.00364 0.137811,0 0.206717,0 0.01722,0 0.05168,-0.017227 0.05168,0 0,0.047921 -0.131871,0.00535 -0.03445,0.092979 0.04551,0.040931 0.135728,-0.00454 0.17227,-0.015497"
         id="path98530" /><path
         style="fill:none;stroke:#000000;stroke-width:1.3229167;stroke-linecap:round;stroke-linejoin:round;stroke-opacity:1;stroke-dasharray:none"
         d="m 72.255797,5.0864155 c -0.03936,0.8387853 -0.377314,1.5897056 -0.585711,2.3863983 -0.05229,0.1998967 -0.120221,0.39848 -0.137821,0.6043512 -0.0031,0.036215 -0.01405,0.6494944 0,0.6663299 0.03393,0.040693 0.294516,0.014936 0.310089,0.015497 0.342651,0.01233 0.253852,0.024601 0.637394,0.030989 0.296254,0.00493 0.645158,-0.011033 0.947487,0.015497 0.22457,0.019709 0.447323,0.057283 0.671851,0.077482 0.05742,0.00516 0.114824,0.010578 0.17227,0.015497 0.222493,0.019058 0.451361,0.033658 0.671851,0.061984 0.02061,0.00265 0.138017,0.057795 0.155046,0.030989 0.01963,-0.030902 0.0053,-0.073863 0.01722,-0.108471 0.03998,-0.1158714 0.0903,-0.2279314 0.137822,-0.3409167 0.265628,-0.6314924 0.215725,-0.9031745 0.275622,-1.5496075 0.01548,-0.1670513 0.04122,-0.3342338 0.08614,-0.4958741 0.05827,-0.1179407 0.07328,-0.1306806 0.103362,-0.2479374 0.01453,-0.056575 0.04481,-0.44626 0.01722,-0.4958802 C 75.695902,5.6812449 75.397902,5.6435772 75.322204,5.6287743 74.910174,5.5482007 74.480059,5.5068802 74.064629,5.4428214 73.860892,5.4114056 73.64505,5.4003693 73.444456,5.3498479 73.039215,5.2477833 72.683824,5.1719711 72.255797,5.0864131 Z"
         id="path98532" /><path
         style="fill:none;stroke:#000000;stroke-width:1.3229167;stroke-linecap:round;stroke-linejoin:round;stroke-opacity:1;stroke-dasharray:none"
         d="m 79.026003,4.9779445 c 0.384734,0.2995896 0.76947,0.5991794 1.154203,0.8987692 0.206721,0.1291344 0.421746,0.2458453 0.62017,0.3874035 0.183113,0.1306354 0.331496,0.3064097 0.516819,0.43389 0.229761,0.1580499 0.497482,0.2527376 0.740756,0.3874031 0.158647,0.087819 0.446834,0.2058242 0.585714,0.3099216 0.07126,0.053409 0.0236,0.066072 0.103362,0.092979 0.02764,0.00933 0.05924,0.02679 0.08614,0.015497 0.06523,-0.027382 0.114848,-0.082646 0.17227,-0.1239687"
         id="path98534" /><path
         style="fill:none;stroke:#000000;stroke-width:1.3229167;stroke-linecap:round;stroke-linejoin:round;stroke-opacity:1;stroke-dasharray:none"
         d="m 82.505854,4.6680171 c -1.265722,1.1271746 -2.59415,2.1781967 -3.876069,3.2851792 -0.182888,0.1579309 -0.337916,0.3053644 -0.465138,0.5113722 -0.01029,0.016679 -0.152217,0.1859528 -0.120587,0.1859528 0.01654,0 0.0024,-0.039212 0.01722,-0.046493 0.116025,-0.056927 0.245581,-0.082852 0.361762,-0.13946 0.36762,-0.1791211 0.433562,-0.2407225 0.723535,-0.4493877"
         id="path98536" /></g></g></svg>
